<?xml version="1.0" standalone="no"?>
<!DOCTYPE svg PUBLIC "-//W3C//DTD SVG 20010904//EN"
 "http://www.w3.org/TR/2001/REC-SVG-20010904/DTD/svg10.dtd">
<svg version="1.0" xmlns="http://www.w3.org/2000/svg"
 width="514.000000pt" height="486.000000pt" viewBox="0 0 514.000000 486.000000"
 preserveAspectRatio="xMidYMid meet">

<g transform="translate(0.000000,486.000000) scale(0.100000,-0.100000)"
fill="#000000" stroke="none">
<path d="M1581 4818 c4 -24 8 -46 9 -50 0 -4 14 -23 31 -43 18 -20 29 -38 26
-41 -8 -8 -175 45 -232 74 -29 14 -45 19 -38 10 20 -24 105 -66 148 -73 22 -4
49 -12 59 -18 18 -9 13 -13 -38 -39 -32 -16 -56 -31 -54 -33 2 -3 32 7 67 21
47 19 73 24 99 19 40 -7 34 -17 -24 -33 -51 -15 -222 -95 -249 -117 l-20 -16
20 9 c11 5 34 12 50 15 17 3 39 9 50 12 11 4 -14 -14 -55 -39 -156 -98 -185
-117 -200 -132 -13 -14 -10 -14 25 1 22 9 47 19 55 22 8 2 -26 -35 -76 -84
-119 -115 -183 -149 -319 -167 -90 -11 -96 -13 -62 -21 21 -4 92 -6 158 -3 65
2 116 1 112 -2 -15 -12 -90 -30 -129 -30 -27 -1 -34 -3 -24 -9 14 -9 92 0 135
14 11 4 -5 -16 -35 -44 -39 -36 -48 -49 -32 -45 21 6 19 2 -16 -57 -84 -138
-119 -226 -63 -159 16 19 43 43 61 54 l32 18 -7 -22 c-5 -15 -4 -20 4 -16 6 4
11 17 11 29 0 12 12 36 26 52 18 22 24 24 19 10 -3 -11 -9 -33 -12 -50 -2 -16
-15 -55 -28 -85 -23 -53 -62 -266 -51 -278 3 -2 8 1 10 9 2 8 12 38 21 66 24
76 39 79 31 7 -9 -70 -22 -93 -90 -156 -49 -45 -50 -61 -3 -36 21 11 21 10 7
-7 -8 -10 -33 -31 -54 -47 l-39 -28 35 0 c33 0 36 -3 47 -42 6 -24 16 -50 22
-58 9 -13 10 -13 6 2 -3 9 -9 33 -13 54 -7 36 -6 37 20 30 22 -5 26 -4 24 11
-2 12 2 17 15 15 11 -2 21 7 27 24 6 15 13 25 15 22 10 -9 -17 -113 -45 -174
-29 -64 -98 -144 -125 -144 -8 0 -15 -4 -15 -9 0 -10 72 4 102 20 26 14 32 6
18 -21 -7 -13 -15 -43 -19 -69 -6 -46 -6 -46 -64 -64 -79 -25 -76 -48 5 -49
24 0 52 -4 63 -8 18 -7 18 -8 -5 -20 -14 -8 -43 -19 -65 -26 l-40 -12 27 -11
c16 -6 43 -8 60 -4 43 8 26 -10 -24 -26 -49 -16 -104 -5 -128 26 -23 29 -25
25 -8 -12 14 -32 9 -37 -30 -26 -44 13 -48 -2 -11 -33 17 -15 29 -29 26 -32
-5 -6 -63 23 -107 53 -14 10 -1 -5 29 -32 53 -50 109 -83 146 -87 11 -1 -14
-4 -55 -7 l-75 -6 35 -22 c24 -16 50 -23 83 -23 l48 0 -23 -32 c-60 -85 -227
-238 -344 -316 -152 -101 -174 -110 -247 -104 -54 4 -62 2 -110 -31 -73 -49
-93 -58 -146 -66 l-46 -6 -3 -50 -3 -50 33 -2 c18 -2 40 -3 48 -4 8 -1 32 -15
52 -31 32 -25 36 -33 28 -49 -14 -24 -46 -24 -105 1 -57 24 -55 24 -55 0 0
-25 35 -46 81 -49 21 -1 21 -2 -4 -27 -14 -14 -31 -23 -36 -19 -6 3 -8 0 -5
-9 3 -9 -2 -17 -15 -21 -18 -5 -21 -14 -21 -62 0 -55 0 -56 19 -37 10 10 17
22 14 26 -6 11 54 96 77 108 14 7 23 6 34 -6 9 -8 16 -19 16 -24 0 -5 25 -50
56 -101 31 -50 73 -126 93 -168 20 -42 53 -105 73 -141 77 -137 195 -426 275
-675 30 -92 36 -127 39 -215 l3 -105 -11 67 c-6 38 -14 68 -18 68 -4 0 -7 -39
-5 -87 1 -49 -2 -99 -7 -112 -7 -19 -5 -22 7 -17 8 3 15 1 15 -4 0 -6 5 -10
10 -10 6 0 8 17 5 42 -4 32 -2 39 6 31 7 -7 11 -53 12 -122 0 -102 1 -111 19
-111 16 0 18 5 13 38 -3 20 -2 31 1 25 3 -7 12 -13 20 -13 10 0 12 -5 7 -12
-15 -25 -11 -38 11 -38 24 0 71 29 47 30 -8 0 -11 7 -8 20 3 11 1 20 -3 20 -5
0 -11 -8 -13 -17 -3 -10 -6 9 -7 42 -1 33 -1 65 0 70 2 6 3 38 3 73 -1 34 3
62 7 62 6 0 32 -147 36 -200 0 -8 4 -34 8 -57 7 -41 8 -41 52 -41 24 0 44 4
44 10 0 23 -53 269 -77 358 -14 52 -36 121 -50 152 -45 108 -60 163 -47 176 6
6 14 10 16 9 2 -1 -3 4 -11 11 -11 8 -12 15 -4 23 7 7 16 -2 30 -30 11 -23 17
-41 12 -41 -5 0 -9 5 -9 10 0 6 -7 10 -15 10 -17 0 -19 -18 -5 -40 9 -13 10
-13 10 0 0 22 48 -39 58 -74 4 -16 14 -32 21 -34 10 -3 11 2 6 19 -5 18 -1 16
18 -11 47 -67 116 -206 119 -237 1 -17 5 -30 10 -27 4 2 9 -10 12 -28 4 -29
11 -74 20 -128 1 -8 5 -24 8 -35 4 -11 9 -37 13 -57 5 -32 10 -38 30 -38 22 0
23 2 14 32 -11 41 -11 41 2 32 8 -5 8 -1 0 14 -9 17 -8 20 6 18 9 -2 24 -23
33 -47 17 -43 18 -44 69 -47 32 -1 51 2 51 8 0 6 5 8 10 5 12 -7 14 17 2 30
-4 6 6 -3 22 -18 29 -28 30 -28 156 -26 l128 1 5 26 c4 15 27 63 53 107 26 44
58 100 71 124 l23 44 1 -64 c1 -100 -1 -171 -7 -206 l-6 -32 85 0 85 1 7 172
c9 205 -8 348 -57 481 -17 47 -28 88 -25 92 4 3 37 -27 74 -68 37 -41 110
-117 161 -171 l94 -96 14 -94 c8 -51 14 -144 14 -205 0 -94 3 -113 15 -113 12
0 15 13 15 55 0 30 4 55 9 55 9 0 31 -28 61 -78 14 -23 27 -32 45 -32 30 0 31
-1 -35 90 -64 89 -66 92 -84 200 -9 52 -19 107 -22 121 -3 16 -56 78 -131 155
-186 192 -269 301 -297 391 -6 18 -2 25 18 34 20 10 28 9 42 -5 10 -11 25 -15
38 -12 66 19 61 21 79 -42 15 -53 69 -133 82 -120 3 3 -2 25 -11 51 -8 25 -14
58 -12 74 3 26 8 21 67 -62 64 -89 138 -175 153 -175 4 0 -2 19 -12 43 -31 68
-23 89 10 27 17 -30 53 -77 80 -105 66 -68 115 -125 129 -153 10 -19 10 -28
-4 -48 -19 -30 -9 -56 12 -29 18 26 16 56 -7 115 -11 27 -18 50 -15 50 3 0 23
-16 45 -37 l41 -36 -7 -69 c-7 -71 -3 -79 27 -52 16 15 19 13 38 -24 25 -48
75 -92 106 -92 l22 0 -20 42 c-31 61 -34 137 -8 168 l20 25 1 -39 c0 -49 34
-122 66 -143 34 -22 37 -13 14 32 -25 49 -25 108 0 163 21 46 36 58 19 15 -17
-43 -14 -145 5 -181 20 -38 29 -42 16 -6 -23 59 -14 78 72 158 84 78 107 90
68 37 -16 -23 -18 -31 -7 -31 22 0 113 135 142 211 15 39 29 69 31 66 3 -3
-11 -108 -21 -152 -2 -11 -21 -40 -40 -63 -44 -51 -33 -55 21 -8 89 76 124
163 123 301 -2 129 -14 144 -22 25 -7 -109 -26 -191 -51 -225 -14 -18 -15 -17
-6 15 35 139 22 440 -20 440 -4 0 -10 -38 -12 -84 -8 -115 -27 -148 -28 -46 0
81 -10 83 -29 7 -11 -47 -69 -181 -70 -162 -1 6 6 35 14 65 18 66 19 126 4
185 -14 55 -39 81 -39 41 0 -14 -4 -26 -10 -26 -5 0 -10 -15 -11 -32 -1 -18
-4 -44 -8 -58 -6 -21 -9 -18 -15 24 -4 27 -13 60 -19 75 -12 25 -12 25 -17
-14 l-5 -40 -21 55 c-34 86 -44 76 -45 -47 -1 -95 -3 -102 -11 -63 -5 25 -24
95 -43 155 -46 150 -57 231 -19 135 9 -22 19 -40 23 -40 4 0 8 27 9 60 4 93
18 117 24 43 3 -34 11 -69 17 -80 9 -14 10 -6 5 37 l-5 55 38 -75 c56 -109 63
-104 58 37 l-5 118 18 -60 c21 -68 50 -128 53 -105 0 8 7 -5 15 -30 l14 -45
-5 55 c-3 30 -9 80 -14 110 -5 30 -8 56 -6 57 1 2 19 -40 39 -92 21 -52 42
-98 48 -101 5 -3 14 -18 20 -32 24 -56 20 13 -6 109 -18 71 -21 89 -9 74 26
-34 82 -159 97 -221 9 -33 13 -43 11 -24 -9 66 15 4 46 -118 34 -140 37 -221
9 -293 -29 -74 -18 -85 15 -15 33 71 42 160 23 232 l-14 51 34 -24 c59 -39
101 -28 51 14 -37 31 -57 70 -68 128 -9 46 2 72 14 35 3 -11 11 -20 17 -20 11
0 5 111 -8 159 -11 38 15 16 38 -33 l19 -41 -6 52 c-6 47 -5 52 16 58 l23 8
-27 13 c-14 8 -39 33 -55 57 -25 37 -27 45 -16 67 7 14 15 33 18 43 6 17 8 17
37 -7 17 -14 34 -26 39 -26 5 0 17 -3 27 -7 11 -5 5 9 -19 37 -49 57 -49 68 1
19 35 -35 43 -39 87 -38 48 1 48 1 14 9 -19 5 -45 21 -58 36 -22 26 -23 32
-20 168 3 132 1 144 -21 189 -13 26 -36 61 -51 76 -21 23 -24 33 -17 48 14 25
23 30 69 37 46 7 110 38 138 66 19 19 19 20 -1 90 -13 47 -21 113 -23 195 -2
68 -6 128 -10 133 -8 13 45 60 79 68 16 4 44 16 62 26 18 11 37 17 42 14 11
-7 13 -1 36 109 16 75 41 142 50 133 3 -2 -2 -26 -10 -53 -21 -69 -19 -180 5
-232 23 -53 71 -83 125 -82 38 1 39 1 10 8 -16 4 -41 13 -53 20 -28 15 -62 84
-61 126 0 27 2 25 27 -25 15 -30 33 -56 40 -58 10 -3 9 5 -4 29 -45 88 -11
217 83 314 26 28 58 63 71 79 12 16 25 26 29 22 3 -3 -2 -61 -12 -129 -9 -67
-21 -143 -24 -169 -8 -51 -34 -87 -86 -119 l-30 -19 26 0 c50 0 194 172 206
245 3 19 10 35 14 35 11 0 11 5 -2 -66 -14 -76 -62 -186 -107 -246 -48 -63
-106 -91 -183 -86 -54 3 -57 2 -42 -14 22 -25 78 -41 116 -33 130 29 268 180
308 339 6 25 13 46 15 46 1 0 31 -17 66 -37 66 -39 114 -47 142 -24 9 8 23 38
32 69 14 46 15 68 5 141 -18 140 -55 239 -137 367 -43 67 -35 85 12 29 45 -53
101 -170 122 -253 19 -79 30 -55 12 28 -17 78 -72 178 -141 256 -55 62 -68 84
-53 84 16 0 154 -107 172 -135 12 -16 33 -65 48 -107 15 -43 31 -78 34 -78 12
0 -29 193 -60 282 -44 129 -124 266 -212 368 l-78 89 30 63 c22 46 30 78 30
118 0 54 -2 57 -52 106 -29 28 -64 57 -78 66 -53 32 -230 108 -252 108 -27 0
-123 -60 -156 -99 l-24 -26 7 40 c3 22 8 77 12 123 5 75 3 87 -21 137 -39 79
-130 169 -210 206 -118 55 -295 73 -431 43 -38 -8 -99 -20 -135 -26 -36 -5
-71 -15 -77 -20 -19 -16 -60 -1 -125 45 -66 46 -57 64 15 29 54 -26 117 -45
124 -39 3 3 -18 17 -46 31 -28 15 -51 23 -51 19 0 -4 -5 -2 -12 5 -15 15 -335
17 -370 3 -13 -5 -72 -24 -133 -42 -60 -18 -143 -43 -184 -56 -81 -25 -91 -27
-91 -15 0 17 129 66 245 92 92 20 88 32 -10 28 -85 -4 -96 -7 -170 -48 -44
-24 -97 -52 -117 -63 -21 -10 -38 -21 -38 -24 0 -3 17 -2 38 2 30 5 35 4 24
-6 -8 -9 -41 -13 -96 -14 -102 0 -127 14 -170 98 -22 43 -35 57 -51 57 -21 0
-22 -3 -14 -42z m41 -18 c18 -56 16 -64 -5 -22 -21 40 -30 72 -20 72 5 0 16
-22 25 -50z m1003 -25 c55 -20 108 -44 118 -53 20 -18 92 -21 197 -8 63 8 68
7 170 -39 58 -26 137 -60 175 -75 203 -82 349 -180 370 -247 9 -30 -6 -29 -36
3 -74 80 -183 145 -319 190 -79 26 -97 28 -258 28 -147 1 -175 -1 -185 -15 -7
-9 -32 -18 -57 -22 -25 -3 -85 -18 -135 -33 -49 -15 -119 -35 -155 -44 -36 -9
-76 -20 -90 -24 -22 -6 -21 -5 5 10 17 10 55 35 85 58 l55 41 -30 6 c-28 6
-29 7 -5 9 14 2 33 2 43 2 10 -1 16 2 13 7 -3 5 20 15 52 24 45 12 103 15 275
12 121 -2 215 0 210 5 -9 8 -166 74 -202 85 -16 5 -21 4 -17 -4 16 -26 -120
-4 -334 54 -127 34 -205 33 -350 -5 -106 -27 -171 -37 -158 -25 9 9 151 57
243 81 121 33 189 28 320 -21z m772 -21 c70 -23 123 -56 177 -111 52 -53 89
-123 84 -162 -3 -22 -8 -16 -37 39 -49 96 -65 114 -139 163 -78 52 -144 77
-224 84 -32 3 -58 9 -58 12 0 11 144 -7 197 -25z m-39 -35 c56 -17 76 -30 122
-77 50 -52 117 -159 105 -170 -2 -3 -35 14 -72 36 -37 23 -97 54 -133 70 -192
87 -289 130 -320 143 l-35 14 35 7 c59 11 227 -2 298 -23z m-993 1 c-3 -5 -14
-10 -23 -10 -15 0 -15 2 -2 10 20 13 33 13 25 0z m125 0 c80 -10 296 -58 319
-70 11 -6 11 -8 -1 -13 -8 -3 -39 4 -68 14 -65 23 -250 59 -302 59 -20 0 -40
5 -43 10 -7 12 -1 12 95 0z m-177 -7 c-7 -2 -19 -2 -25 0 -7 3 -2 5 12 5 14 0
19 -2 13 -5z m302 -66 l50 -14 -120 -6 c-66 -4 -136 -11 -155 -16 -51 -13
-220 -23 -220 -13 0 10 58 34 140 57 64 18 224 14 305 -8z m272 -13 c-3 -3
-12 -4 -19 -1 -8 3 -5 6 6 6 11 1 17 -2 13 -5z m-492 -65 c-22 -4 -49 -8 -60
-8 l-20 0 20 9 c11 5 38 8 60 8 l40 0 -40 -9z m518 -26 c-7 -2 -19 -2 -25 0
-7 3 -2 5 12 5 14 0 19 -2 13 -5z m-1166 -9 c-3 -3 -12 -4 -19 -1 -8 3 -5 6 6
6 11 1 17 -2 13 -5z m1429 -6 c52 -6 94 -14 94 -18 0 -7 -231 17 -239 25 -7 8
45 6 145 -7z m-1476 -7 c-8 -5 -33 -11 -55 -14 l-40 -6 30 14 c33 15 92 21 65
6z m124 -63 c14 -24 42 -60 63 -80 49 -48 165 -108 208 -108 19 0 37 -4 40
-10 4 -6 -17 -10 -54 -10 -34 0 -61 -4 -61 -10 0 -5 16 -10 35 -10 19 0 35 -5
35 -11 0 -8 20 -10 65 -7 36 3 65 4 65 2 0 -9 -66 -35 -185 -74 -71 -23 -136
-43 -143 -46 -7 -2 11 19 40 47 51 49 52 50 23 45 -16 -2 -39 -8 -49 -12 -14
-5 -17 -4 -12 4 4 7 13 12 20 12 8 0 29 7 47 15 34 16 34 16 -30 10 -36 -4
-78 -13 -94 -21 -15 -9 -34 -13 -40 -11 -7 2 5 12 25 21 44 21 69 46 45 46 -8
0 -39 -11 -68 -24 -50 -21 -150 -48 -157 -42 -1 2 31 19 73 39 41 20 75 39 75
43 0 13 -86 -7 -137 -32 -29 -14 -57 -24 -63 -22 -6 2 12 12 40 23 27 11 50
23 50 28 0 10 -72 5 -105 -7 -11 -3 11 9 50 29 38 19 75 35 81 35 6 0 18 7 25
17 13 15 8 16 -56 11 l-70 -6 53 21 c36 14 49 23 40 28 -36 20 -327 -76 -417
-137 -19 -13 -37 -21 -40 -19 -5 6 -13 0 89 75 94 70 189 118 295 148 58 17
137 36 167 41 4 1 18 -18 32 -41z m151 10 c7 -7 -5 -9 -37 -6 -43 5 -46 4 -35
-13 6 -10 20 -22 32 -28 19 -9 19 -10 -3 -10 -23 -1 -72 42 -72 63 0 14 101 9
115 -6z m735 -9 c-41 -16 -100 -36 -130 -45 -30 -8 -68 -21 -85 -29 -46 -20
-128 -45 -145 -44 -13 0 -13 1 0 6 67 24 154 59 199 81 65 31 165 61 206 61
23 0 13 -7 -45 -30z m542 -3 c34 -16 75 -47 102 -77 43 -48 96 -143 96 -171 0
-7 -9 6 -20 30 -28 62 -135 165 -186 180 -23 7 -52 12 -65 11 -16 0 -9 -5 22
-15 80 -24 196 -149 214 -230 5 -23 0 -18 -23 21 -46 77 -97 130 -147 154 -50
24 -55 25 -55 12 0 -5 11 -12 25 -15 49 -12 136 -128 175 -231 15 -41 3 -25
-60 75 -56 90 -88 130 -103 130 -10 0 8 -31 61 -105 39 -53 38 -66 -1 -29 -61
56 -109 69 -262 69 -122 -1 -153 -5 -240 -29 -55 -16 -152 -52 -215 -81 -151
-69 -280 -109 -280 -87 0 33 496 294 630 332 82 22 88 30 20 24 -95 -9 -223
-53 -462 -158 -55 -24 -47 -12 17 24 30 17 61 40 68 50 15 22 88 55 207 95
132 44 195 54 315 51 96 -2 117 -6 167 -30z m249 -71 l10 -20 -16 20 c-9 11
-21 29 -26 40 l-10 20 16 -20 c9 -11 21 -29 26 -40z m-1426 -15 c68 -7 69 -7
18 -9 -55 -1 -143 18 -143 31 0 4 12 3 28 -3 15 -6 59 -14 97 -19z m162 4 c-3
-3 -12 -4 -19 -1 -8 3 -5 6 6 6 11 1 17 -2 13 -5z m1631 -37 c-10 -7 -40 -28
-67 -47 -28 -19 -51 -40 -51 -45 0 -15 -114 -135 -128 -135 -20 0 -15 9 45 87
77 101 142 151 198 152 18 0 19 -1 3 -12z m87 -17 c17 -6 13 -9 -20 -15 -22
-4 -62 -19 -90 -34 -51 -28 -85 -43 -85 -37 0 3 97 69 125 84 23 13 42 14 70
2z m-834 -82 c44 -15 113 -71 139 -113 25 -40 27 -69 2 -38 -24 30 -194 131
-178 105 2 -4 -51 -7 -117 -8 -105 0 -202 -10 -297 -30 -43 -9 -9 12 56 36
149 53 320 74 395 48z m944 -42 c55 -29 85 -85 85 -158 0 -32 -4 -58 -9 -58
-5 0 -18 22 -29 48 -26 59 -42 74 -88 79 -37 4 -154 53 -154 64 0 11 53 42 85
50 36 8 58 4 110 -25z m-319 -38 c-42 -57 -56 -85 -56 -108 0 -22 7 -18 65 40
69 68 85 74 35 12 -34 -43 -63 -117 -55 -143 4 -10 -12 -41 -39 -80 -25 -35
-61 -94 -81 -131 -19 -38 -37 -68 -38 -68 -11 0 -4 132 8 173 28 94 13 107
-24 22 -29 -67 -38 -66 -16 1 45 137 75 190 142 248 70 60 85 69 59 34z m-398
-33 c-3 -3 -9 2 -12 12 -6 14 -5 15 5 6 7 -7 10 -15 7 -18z m-203 -24 c42 -19
71 -47 100 -96 12 -21 5 -16 -23 16 -89 100 -188 105 -273 15 -32 -34 -40 -37
-117 -46 -108 -12 -253 -52 -347 -95 -41 -19 -75 -31 -75 -27 0 11 214 134
323 186 103 50 161 63 297 65 54 0 86 -5 115 -18z m-475 -36 c0 -2 -48 -27
-107 -55 -58 -28 -121 -62 -140 -76 -66 -50 -86 -54 -294 -50 -173 3 -210 7
-339 36 -80 17 -188 37 -240 45 -124 17 -65 18 170 4 159 -10 207 -9 340 5
257 27 305 34 423 60 61 14 126 27 142 29 17 2 33 5 38 6 4 0 7 -1 7 -4z m453
-17 c25 -13 70 -58 58 -58 -4 0 -18 11 -31 25 -13 14 -29 25 -36 25 -7 0 -16
5 -19 10 -8 13 1 13 28 -2z m952 3 c-6 -5 -26 -12 -45 -15 -35 -7 -35 -7 -10
8 27 17 70 22 55 7z m-282 -46 c-3 -9 -8 -14 -10 -11 -3 3 -2 9 2 15 9 16 15
13 8 -4z m187 6 c0 -5 -7 -12 -16 -15 -14 -5 -15 -4 -4 9 14 17 20 19 20 6z
m110 -11 c0 -5 -6 -10 -14 -10 -8 0 -23 -3 -33 -6 -16 -5 -16 -4 1 10 22 18
46 21 46 6z m-643 -57 c-3 -10 -5 -4 -5 12 0 17 2 24 5 18 2 -7 2 -21 0 -30z
m444 -9 c-23 -26 -41 -51 -41 -55 0 -8 13 -3 108 37 20 9 62 25 91 35 48 17
57 17 70 5 12 -13 11 -16 -15 -21 -111 -25 -176 -66 -343 -214 l-75 -66 50 94
c31 60 72 119 113 163 71 76 106 94 42 22z m-387 2 c-3 -15 -8 -25 -11 -23 -2
3 -1 17 3 31 3 15 8 25 11 23 2 -3 1 -17 -3 -31z m267 -29 c-17 -23 -48 -66
-68 -95 -20 -29 -38 -50 -41 -47 -7 6 77 145 105 173 37 37 40 17 4 -31z
m-1041 27 c-36 -8 -69 -12 -75 -10 -17 6 58 24 100 24 35 0 31 -1 -25 -14z
m133 -5 c-5 -5 -48 -19 -94 -30 -46 -11 -135 -36 -197 -56 -62 -19 -115 -33
-118 -30 -3 3 25 15 63 28 37 12 88 31 113 42 25 10 83 27 130 37 105 22 117
23 103 9z m1282 -39 c17 -18 16 -19 -11 -25 -57 -13 -95 -27 -139 -52 -63 -35
-55 -16 16 37 88 66 106 71 134 40z m-1246 -130 c-33 -144 -55 -107 -24 40 18
86 26 101 36 71 6 -13 1 -54 -12 -111z m1346 36 c75 -79 169 -252 208 -379
l14 -47 -46 43 c-25 23 -72 62 -103 85 -59 43 -93 83 -122 140 -26 50 -14 61
20 17 37 -49 108 -125 98 -105 -4 8 -22 34 -41 57 -18 23 -33 45 -33 49 0 20
88 -79 137 -154 30 -46 56 -82 59 -80 2 3 -17 46 -42 97 -51 103 -129 191
-190 217 -72 30 -189 -5 -338 -100 -71 -45 -73 -30 -4 25 71 55 151 95 226
109 66 13 74 30 14 31 -20 0 -46 4 -57 9 l-20 8 20 7 c11 4 29 10 40 15 11 5
40 9 65 9 41 1 48 -3 95 -53z m-2130 -9 c-43 -18 -69 -21 -180 -21 -71 0 -141
5 -155 11 -19 8 -1 9 75 6 61 -3 135 1 190 10 122 20 128 19 70 -6z m695 18
c0 -7 -92 -51 -124 -59 -16 -4 -66 -24 -111 -46 -141 -67 -240 -85 -455 -84
-174 0 -192 2 -310 32 -69 17 -145 38 -170 46 -68 22 -12 20 85 -3 150 -35
242 -44 430 -39 159 5 193 9 295 36 63 16 167 50 230 75 119 47 130 50 130 42z
m1229 -19 c-2 -2 -17 -6 -34 -10 -22 -5 -26 -4 -15 4 14 9 59 15 49 6z m-1894
-26 c-3 -5 -12 -10 -18 -10 -7 0 -6 4 3 10 19 12 23 12 15 0z m655 -15 c0 -2
-10 -9 -22 -15 -22 -11 -22 -10 -4 4 21 17 26 19 26 11z m278 -21 c34 -13 46
-14 52 -5 10 17 50 -4 114 -60 40 -35 48 -40 44 -22 l-6 21 34 -19 c32 -17 34
-17 35 -1 0 12 3 11 10 -6 14 -36 34 -53 48 -39 8 8 11 8 11 -1 0 -6 14 -26
32 -43 29 -27 33 -28 39 -12 4 12 8 2 13 -30 7 -43 9 -46 23 -32 21 21 37 14
41 -18 4 -34 30 -56 43 -36 6 10 9 6 9 -15 0 -21 4 -27 15 -22 10 4 15 -1 15
-15 0 -13 5 -19 13 -16 49 18 55 18 50 -3 -4 -14 -1 -20 11 -20 28 0 18 -62
-43 -280 -15 -54 -21 -103 -21 -180 0 -81 -4 -111 -16 -129 -12 -16 -19 -20
-27 -12 -6 6 -19 11 -29 11 -14 0 -18 8 -18 38 l-1 37 -13 -30 c-8 -16 -36
-52 -62 -78 l-49 -48 7 -82 c3 -45 7 -118 8 -162 0 -46 11 -117 24 -168 l22
-88 -20 -15 c-39 -27 -148 -55 -190 -48 -35 6 -37 5 -28 -12 13 -23 -2 -54
-27 -54 -9 0 -28 12 -42 26 -13 14 -32 30 -41 35 -29 16 -158 37 -331 56 -51
5 -145 -19 -245 -63 -51 -23 -54 -23 -37 -4 28 31 13 33 -29 4 -56 -38 -76
-24 -29 21 24 23 30 32 16 26 -12 -6 -32 -11 -45 -10 -21 0 -19 2 10 16 42 21
40 29 -5 38 l-38 7 42 18 c46 20 78 61 46 58 -10 0 -29 0 -42 0 -24 2 -24 2
-5 17 17 13 11 14 -66 15 -47 1 -78 4 -70 7 8 2 22 7 30 9 29 10 -13 24 -55
19 -39 -4 -40 -4 -7 6 17 5 32 14 32 19 0 5 9 12 20 15 30 10 24 23 -12 27
l-33 3 38 23 c21 12 35 27 32 32 -3 6 2 10 12 11 15 0 15 2 3 7 -38 17 -91 65
-79 73 15 9 -24 28 -108 55 -64 19 -81 34 -41 34 21 0 21 0 2 15 -36 27 5 16
79 -22 103 -53 173 -85 164 -77 -20 20 -139 97 -194 126 -35 18 -63 39 -63 47
0 7 -8 20 -17 27 -17 12 -16 13 5 14 26 0 31 34 7 44 -18 7 -20 36 -2 36 8 0
7 3 -3 10 -19 12 0 33 23 24 13 -5 14 -9 5 -24 -31 -49 59 -178 162 -230 70
-36 67 -17 -9 56 -62 59 -131 151 -131 177 0 4 13 7 30 7 136 0 328 103 456
244 64 71 69 74 103 69 47 -7 82 -26 156 -79 92 -68 99 -73 94 -78 -2 -2 -33
0 -69 5 -63 8 -103 2 -177 -23 -34 -12 -35 -28 -2 -28 10 0 24 -9 31 -20 11
-17 20 -18 90 -13 74 6 78 5 78 -15 0 -11 -4 -24 -10 -27 -5 -3 -10 -22 -10
-40 0 -28 6 -37 30 -50 38 -20 40 -19 73 10 l27 26 0 -25 c0 -15 -8 -30 -20
-36 -29 -16 -91 -84 -79 -88 5 -2 19 8 31 23 11 14 26 24 33 21 8 -3 11 2 8
15 -4 15 0 19 21 19 24 0 26 3 26 43 0 52 9 65 24 34 7 -12 19 -22 27 -22 9 0
27 -8 40 -18 15 -11 17 -16 7 -13 -10 3 -20 1 -23 -4 -4 -6 -2 -10 4 -10 6 0
8 -7 5 -15 -4 -9 -1 -15 8 -15 7 0 19 -9 25 -19 14 -23 9 -25 -69 -36 -28 -4
-54 -15 -65 -27 -18 -20 -18 -21 4 -9 12 6 57 20 100 30 121 29 120 29 81 62
l-33 28 58 1 c36 0 71 7 95 19 42 22 89 68 79 78 -4 3 -7 1 -7 -5 0 -6 -10
-17 -22 -23 -13 -6 -20 -8 -16 -4 4 4 3 16 -3 26 -7 15 -14 17 -28 10 -19 -10
-46 -9 -57 2 -4 4 -16 -1 -26 -10 -11 -10 -19 -13 -18 -8 6 27 -4 48 -44 95
-25 29 -52 67 -60 85 -9 18 -33 45 -53 61 -54 41 -83 74 -83 95 0 10 -8 20
-18 23 -23 8 -208 1 -244 -9 -35 -9 -35 1 -4 63 46 91 77 178 112 312 19 74
36 141 39 148 6 16 76 9 133 -14z m-1198 6 c0 -12 -36 -12 -100 -1 -43 8 -41
9 28 10 42 0 72 -3 72 -9z m-311 -16 c2 -2 -34 -3 -80 -3 -64 1 -76 3 -49 9
32 7 119 3 129 -6z m1165 -15 c-22 -25 -125 -96 -151 -106 -20 -7 85 79 132
108 39 24 42 24 19 -2z m-1262 -5 c57 -9 173 -35 258 -59 225 -64 320 -79 465
-71 66 3 146 12 178 20 31 8 57 12 57 10 0 -3 6 -2 13 3 6 4 20 6 30 5 9 -2
17 2 17 7 0 6 5 11 10 11 46 0 -80 -76 -151 -91 -68 -15 -282 -6 -404 16 -92
17 -124 26 -275 76 -186 62 -288 74 -385 45 -59 -18 -46 -2 21 24 60 23 44 23
166 4z m1395 -56 c-3 -8 -6 -5 -6 6 -1 11 2 17 5 13 3 -3 4 -12 1 -19z m-127
8 c0 -5 -179 -126 -186 -126 -11 0 53 49 116 89 68 43 70 44 70 37z m-195 -16
c-3 -5 -11 -10 -16 -10 -6 0 -7 5 -4 10 3 6 11 10 16 10 6 0 7 -4 4 -10z m231
-37 c-3 -10 -10 -38 -16 -63 -16 -61 -45 -116 -89 -170 -21 -25 -41 -52 -46
-60 -8 -13 -7 -13 11 0 10 8 29 26 42 40 23 25 23 25 -2 -26 -13 -27 -32 -56
-41 -64 -8 -7 -30 -31 -48 -54 l-32 -40 48 32 c26 18 47 30 47 27 0 -3 -12
-27 -26 -53 -66 -120 -257 -259 -381 -278 -39 -6 -45 -4 -70 27 -36 42 -38 73
-7 118 13 19 24 41 24 47 0 6 7 17 15 24 9 7 14 19 11 26 -3 7 17 27 47 47
310 203 310 203 369 284 68 94 121 153 138 153 6 0 9 -8 6 -17z m1358 -42 c10
-10 13 -22 8 -25 -10 -6 -52 21 -52 35 0 16 26 10 44 -10z m75 -29 c0 -24 -1
-25 -9 -7 -12 28 -12 47 0 40 6 -3 10 -18 9 -33z m-80 -18 c95 -38 113 -51
131 -99 11 -29 10 -29 -32 12 -24 23 -70 54 -103 69 -83 36 -178 31 -267 -15
-45 -23 -57 -26 -44 -12 24 26 103 59 168 70 29 5 54 9 55 10 2 0 43 -15 92
-35z m-2347 -40 c24 -26 47 -54 52 -63 5 -9 14 -19 20 -23 6 -4 7 -8 3 -8 -5
0 -23 10 -40 23 -39 27 -117 66 -135 67 -26 0 -71 -30 -91 -64 -18 -28 -51
-118 -51 -136 1 -10 40 45 40 56 0 6 15 28 33 49 30 35 38 38 80 38 62 -1 79
-16 71 -58 -5 -27 -2 -34 14 -39 11 -4 22 -13 25 -20 4 -10 -10 -16 -51 -22
-31 -5 -65 -9 -74 -9 -19 -1 -46 -33 -73 -85 -10 -19 -25 -40 -34 -46 -23 -17
-22 -127 1 -151 22 -21 33 -12 19 15 -6 12 -11 45 -11 76 0 43 4 58 19 68 10
8 29 31 41 52 26 43 53 56 115 56 104 0 98 -41 -12 -74 -31 -10 -73 -63 -73
-94 0 -14 10 -61 21 -104 12 -44 18 -82 15 -85 -4 -4 -21 -2 -38 5 -18 6 -34
9 -37 7 -10 -11 19 -28 59 -35 35 -6 46 -4 67 14 l26 22 -28 48 c-23 39 -27
55 -22 94 6 53 50 102 92 102 25 0 29 -8 25 -44 -1 -15 2 -17 17 -11 10 4 40
13 66 19 40 8 50 8 57 -4 6 -8 10 -18 10 -21 0 -14 -80 -96 -132 -134 -32 -23
-55 -44 -53 -47 3 -3 26 -1 52 3 25 5 48 7 51 4 3 -2 -8 -30 -24 -62 -25 -49
-37 -62 -86 -88 -32 -16 -58 -36 -58 -42 0 -16 1 -16 37 -3 26 9 27 9 9 -5
-29 -22 -129 -23 -155 -2 -15 13 -111 158 -134 204 -21 41 -39 164 -39 258 1
146 46 245 145 317 70 52 109 47 169 -18z m753 46 c-3 -5 -12 -10 -18 -10 -7
0 -6 4 3 10 19 12 23 12 15 0z m-645 -60 c24 -20 30 -29 19 -30 -19 0 -69 37
-69 51 0 16 15 10 50 -21z m554 16 c-37 -26 -211 -96 -264 -106 -76 -14 -117
-11 -55 4 28 7 73 23 100 35 65 30 206 81 225 81 10 0 9 -4 -6 -14z m1641 -5
c22 -10 48 -27 57 -37 33 -38 59 -126 63 -213 l4 -86 -13 60 c-26 117 -69 205
-109 227 -12 7 -51 20 -87 29 -60 15 -63 17 -40 27 38 16 80 14 125 -7z
m-1295 -54 c-12 -31 -26 -60 -32 -63 -7 -5 -9 -2 -6 7 34 82 52 119 55 116 2
-3 -6 -30 -17 -60z m-1710 9 c0 -2 -12 -12 -27 -21 l-28 -18 19 21 c17 20 36
29 36 18z m805 -26 c13 -6 15 -9 5 -9 -8 0 -22 4 -30 9 -18 12 -2 12 25 0z
m2163 -17 c14 -10 32 -30 41 -43 16 -24 16 -24 -20 3 -20 15 -57 34 -83 43
-25 9 -46 18 -46 21 0 12 85 -7 108 -24z m-2110 -46 c12 -13 17 -34 15 -68 -1
-36 3 -49 13 -49 23 0 16 -19 -14 -34 -16 -8 -34 -22 -41 -30 -19 -22 -34 -20
-22 2 17 32 18 75 5 127 -8 28 -14 55 -14 62 0 18 39 11 58 -10z m2350 -16
c47 -60 112 -248 119 -348 6 -77 -9 -154 -33 -174 -19 -15 -53 -5 -96 28 -61
46 -62 53 -39 205 21 138 28 302 11 263 -7 -17 -9 -15 -9 11 -1 35 24 43 47
15z m-205 -169 c-1 -59 -6 -120 -11 -137 -5 -19 -7 14 -4 92 3 77 0 134 -7
155 -11 32 -11 32 6 15 15 -15 18 -34 16 -125z m-1386 96 c-3 -8 -6 -5 -6 6
-1 11 2 17 5 13 3 -3 4 -12 1 -19z m1471 -278 c-2 -101 -7 -143 -17 -152 -11
-11 -12 -7 -5 27 5 22 9 97 9 167 0 75 3 121 8 112 5 -8 7 -77 5 -154z m-3045
103 c-10 -26 -44 -83 -50 -83 -8 0 9 45 29 73 22 31 30 35 21 10z m2992 -90
c-3 -24 -9 -42 -12 -40 -3 3 -2 30 2 59 5 29 10 47 13 40 2 -7 1 -34 -3 -59z
m-3065 -48 c-6 -15 -13 -25 -17 -21 -3 3 0 17 7 31 17 32 24 26 10 -10z m3007
-19 c-6 -44 -52 -151 -68 -162 -5 -3 2 17 16 43 13 26 30 74 37 106 14 67 23
76 15 13z m-988 -23 c23 23 11 -12 -15 -42 -27 -33 -52 -39 -72 -19 -32 32 -5
69 43 58 21 -5 38 -3 44 3z m-959 -143 c0 -5 -8 -10 -17 -10 -15 0 -16 2 -3
10 19 12 20 12 20 0z m2005 -49 c-9 -28 -20 -51 -25 -51 -10 0 1 41 22 82 20
41 22 25 3 -31z m-2497 -33 c58 -24 76 -56 49 -86 -9 -9 -15 -21 -15 -27 2
-17 -135 -105 -182 -117 -41 -11 -43 -13 -20 -19 14 -4 50 -4 80 -2 69 7 60
-3 -45 -48 l-80 -34 53 -3 c28 -2 52 -5 52 -7 0 -3 -15 -25 -34 -50 -26 -34
-36 -58 -41 -102 -13 -109 -19 -127 -44 -133 l-24 -5 27 -12 c14 -7 26 -17 26
-22 0 -11 -61 -31 -95 -31 -19 -1 -19 -1 -2 -11 10 -6 38 -9 62 -7 24 1 41 0
39 -4 -3 -4 2 -24 11 -44 15 -37 21 -134 8 -134 -5 0 -14 -4 -22 -9 -11 -7
-10 -13 4 -35 17 -26 17 -28 -3 -49 -20 -21 -20 -24 -5 -39 13 -14 14 -23 4
-63 -6 -26 -9 -56 -5 -67 3 -11 -2 -52 -11 -91 -9 -40 -25 -110 -35 -157 -11
-47 -31 -137 -46 -200 -33 -138 -37 -286 -11 -393 10 -38 17 -75 17 -83 0 -24
-35 -16 -65 16 -29 31 -81 53 -125 54 -19 1 -35 16 -69 66 l-43 65 5 105 5
105 -17 -85 c-21 -103 -34 -92 -21 16 5 44 14 140 20 214 6 74 13 146 15 160
l6 25 -12 -25 c-6 -14 -17 -101 -25 -194 -8 -93 -16 -172 -19 -174 -3 -3 -5
55 -6 129 0 86 -4 124 -9 107 -4 -15 -9 -68 -9 -119 -1 -50 -5 -98 -11 -107
-14 -25 -7 79 40 598 l19 215 40 78 c59 114 44 98 -37 -37 -29 -51 -30 -55
-92 -701 -10 -103 -15 -124 -24 -114 -4 4 -167 290 -273 479 -81 142 -226 368
-294 457 l-51 66 99 51 c184 95 297 178 453 333 98 96 152 143 166 143 31 0
55 -10 48 -21 -3 -5 13 -9 34 -9 34 0 45 -6 73 -37 52 -61 67 -69 88 -47 17
18 16 20 -6 37 -19 16 -63 85 -63 100 0 2 49 4 109 3 93 0 108 -3 104 -16 -3
-8 12 4 33 26 22 23 56 52 77 64 20 12 37 24 37 27 0 2 -17 2 -37 -1 -65 -10
-71 8 -11 31 69 27 73 27 136 1z m2452 -48 c-6 -11 -16 -20 -22 -20 -6 0 -3 9
7 20 10 11 20 20 22 20 2 0 -1 -9 -7 -20z m-2074 -115 c-17 -17 -60 -35 -84
-35 -14 0 -13 2 3 14 19 13 71 34 88 35 5 1 2 -6 -7 -14z m213 -78 c-36 -18
-82 -49 -101 -69 -20 -21 -41 -38 -48 -38 -7 0 -2 9 11 20 29 24 14 25 -37 4
-46 -19 -167 -54 -172 -49 -2 1 18 11 45 20 60 21 167 68 257 111 39 19 79 34
90 34 12 0 -7 -14 -45 -33z m-348 -243 c-63 -29 -62 -40 3 -23 35 9 50 9 58 1
15 -15 15 -15 -71 -35 -80 -19 -110 -11 -70 17 14 10 18 16 9 16 -23 0 1 18
45 34 65 24 84 16 26 -10z m274 -9 c-35 -28 -25 -31 35 -10 57 20 67 19 45 -5
-20 -22 -113 -54 -191 -65 -58 -9 -136 -38 -176 -66 -15 -11 -28 -16 -28 -11
0 14 40 46 110 87 36 21 68 43 71 47 6 9 123 46 149 47 9 1 3 -9 -15 -24z
m-168 -21 c-3 -3 -12 -4 -19 -1 -8 3 -5 6 6 6 11 1 17 -2 13 -5z m843 -44
c-19 -11 -43 -19 -53 -20 -9 0 -82 -33 -161 -74 -103 -52 -140 -67 -128 -51
17 22 83 75 117 93 28 15 154 54 189 58 16 2 32 6 34 9 3 3 12 5 21 5 9 -1 0
-9 -19 -20z m-473 -16 c-13 -14 -222 -134 -231 -134 -6 0 12 14 39 32 28 17
66 41 85 54 63 40 129 70 107 48z m528 -24 c-49 -16 -91 -27 -94 -25 -2 3 2 6
10 9 8 2 34 11 59 19 52 18 79 25 100 25 8 0 -25 -13 -75 -28z m120 0 c-48
-10 -207 -65 -247 -86 -15 -8 -28 -12 -28 -9 0 19 231 103 285 103 26 0 24 -1
-10 -8z m-867 -11 c-10 -5 -63 -25 -118 -43 -126 -43 -202 -100 -241 -183 -9
-21 -18 -31 -18 -23 -1 15 46 100 71 130 32 38 94 74 175 101 88 28 167 40
131 18z m1151 -57 c5 -10 13 -43 16 -73 l7 -54 -21 33 c-24 38 -39 112 -23
112 6 0 16 -8 21 -18z m-3054 -10 c22 -15 124 -153 142 -192 10 -22 23 -40 28
-40 12 0 75 -98 102 -158 11 -23 23 -39 27 -35 4 4 4 -1 0 -11 -5 -13 -4 -17
3 -13 12 8 26 -20 18 -33 -3 -5 0 -12 6 -16 8 -5 10 -2 5 7 -4 8 2 3 13 -11
11 -14 21 -28 21 -33 0 -4 25 -49 55 -99 30 -50 55 -93 55 -95 0 -6 121 -214
188 -323 117 -191 209 -326 238 -350 16 -14 65 -68 109 -120 134 -159 247
-269 283 -276 18 -4 30 -9 27 -12 -2 -3 0 -11 6 -18 7 -8 6 -14 -2 -20 -8 -4
-9 -3 -5 4 4 7 2 12 -3 12 -6 0 -11 -9 -11 -20 0 -11 -4 -20 -10 -20 -5 0 -10
-7 -10 -15 0 -20 16 -19 24 1 4 9 9 14 12 11 3 -3 -2 -20 -12 -37 -16 -27 -24
-30 -54 -28 -26 2 -35 7 -34 21 1 9 -3 17 -10 18 -43 3 -59 9 -90 33 -20 15
-34 32 -31 37 4 5 0 9 -8 9 -17 0 -59 44 -50 53 3 4 -1 7 -10 7 -24 0 -183
189 -269 320 -42 63 -104 169 -138 235 -34 66 -66 125 -70 130 -7 10 -25 43
-125 230 -27 50 -66 121 -88 159 -32 55 -37 70 -26 78 11 8 10 8 -4 4 -15 -5
-25 9 -58 78 -21 46 -39 92 -39 103 0 10 -7 30 -16 43 -11 18 -9 17 11 -5 14
-16 33 -41 41 -55 9 -14 28 -34 42 -44 27 -19 27 -19 11 0 -9 10 -20 30 -24
44 -14 45 -90 161 -142 218 -29 31 -53 58 -53 60 0 1 -11 15 -25 30 -15 16
-25 21 -25 13 0 -8 7 -19 16 -25 14 -11 14 -13 0 -25 -13 -11 -16 -11 -16 2 0
22 -66 71 -82 61 -10 -6 -10 -5 0 8 12 14 10 16 -10 11 -19 -4 -20 -3 -8 7 12
9 11 10 -10 8 -15 -2 -24 2 -23 9 2 7 -4 10 -12 7 -8 -4 -15 -2 -14 2 0 9 96
62 114 63 6 0 15 -3 20 -7z m3127 -59 c32 -65 33 -71 33 -194 0 -70 -3 -125
-6 -123 -13 8 -29 95 -29 161 0 43 -9 96 -24 146 -14 42 -21 77 -16 77 5 0 24
-30 42 -67z m-1622 -83 c-11 -30 -19 -47 -20 -38 0 19 30 101 36 96 1 -2 -6
-28 -16 -58z m-1667 43 c-7 -2 -19 -2 -25 0 -7 3 -2 5 12 5 14 0 19 -2 13 -5z
m3127 -60 c0 -28 -4 -28 -40 -2 -17 13 -50 24 -79 27 -64 6 -66 20 -3 24 63 4
122 -20 122 -49z m-200 27 c14 -5 47 -12 75 -15 41 -6 56 -14 87 -48 43 -46
45 -56 19 -88 -19 -23 -19 -24 -67 -7 -27 9 -78 21 -113 28 -34 6 -70 14 -80
17 -14 6 -14 4 2 -14 16 -19 16 -20 0 -35 -24 -20 -79 -48 -95 -48 -8 0 -6 5
5 11 27 16 10 29 -25 18 -37 -10 -111 -61 -146 -99 -29 -31 -79 -133 -88 -179
-9 -45 14 -38 38 11 18 38 47 66 35 35 -3 -10 -2 -17 2 -17 5 0 12 -19 16 -42
4 -24 18 -79 31 -122 49 -157 42 -326 -18 -418 -16 -27 -34 -48 -39 -48 -5 0
2 18 16 40 14 22 30 63 36 92 15 68 5 205 -18 254 l-18 39 -5 -90 c-4 -49 -7
-73 -8 -52 -3 67 -22 181 -35 207 -11 24 -12 22 -17 -25 l-5 -50 -32 55 c-39
65 -37 87 13 195 33 72 116 163 196 216 21 13 38 28 38 33 0 4 -21 5 -47 1
-44 -6 -47 -5 -28 9 19 15 19 15 -5 10 l-25 -6 29 27 c28 25 28 26 7 32 -39
10 -21 32 57 68 39 19 59 22 117 18 39 -3 81 -8 95 -13z m-880 -33 c0 -2 -10
-12 -22 -23 l-23 -19 19 23 c18 21 26 27 26 19z m86 -10 c-1 -7 -18 -33 -38
-58 -61 -75 -88 -143 -89 -229 -1 -92 -17 -67 -18 27 -1 54 4 73 40 143 42 82
112 159 105 117z m464 9 c0 -2 -8 -10 -17 -17 -16 -13 -17 -12 -4 4 13 16 21
21 21 13z m-2380 -36 c0 -5 -2 -10 -4 -10 -3 0 -8 5 -11 10 -3 6 -1 10 4 10 6
0 11 -4 11 -10z m1970 -59 c-31 -49 -40 -60 -40 -43 0 16 64 116 67 105 2 -6
-10 -34 -27 -62z m-8 52 c2 -5 -9 -20 -24 -35 -21 -20 -28 -23 -28 -11 0 29
43 66 52 46z m162 -12 c-74 -45 -96 -54 -105 -40 -6 10 -11 6 -18 -13 -11 -30
-31 -46 -31 -25 0 32 39 62 102 78 83 22 89 22 52 0z m-697 -13 c-3 -8 -6 -5
-6 6 -1 11 2 17 5 13 3 -3 4 -12 1 -19z m-1458 -45 c20 -30 29 -54 25 -67 -4
-17 -3 -18 6 -6 9 12 13 12 17 2 3 -7 15 -25 27 -40 28 -34 80 -122 72 -122
-4 0 -20 15 -37 33 -26 28 -29 29 -18 7 l12 -25 -23 20 c-17 16 -63 91 -88
148 -2 4 4 4 12 1 12 -5 15 -2 10 9 -3 9 -12 13 -20 10 -13 -5 -21 1 -59 47
-17 20 -18 22 -3 17 10 -3 20 -2 23 3 9 15 11 14 44 -37z m2149 -15 c19 6 -11
-42 -54 -88 -18 -19 -45 -60 -60 -90 -25 -49 -28 -65 -28 -155 0 -55 -3 -89
-7 -75 -15 53 -9 186 10 243 20 58 62 138 90 170 13 15 17 16 26 4 5 -7 16
-12 23 -9z m862 -155 c0 -27 -14 -37 -28 -20 -5 6 -19 37 -30 67 -16 41 -21
48 -21 29 -1 -46 21 -92 82 -173 59 -77 54 -89 -12 -24 -55 54 -81 92 -102
154 l-20 58 37 32 38 31 28 -65 c15 -37 28 -76 28 -89z m-1292 85 c-11 -29
-24 -84 -28 -123 l-9 -70 3 80 c2 59 9 91 25 123 29 57 33 53 9 -10z m482 36
c0 -2 -17 -29 -39 -61 -56 -84 -80 -136 -102 -216 l-19 -72 5 84 c4 65 11 98
33 145 35 73 75 122 102 122 11 0 20 -1 20 -2z m-443 -161 c-2 -16 -4 -5 -4
22 0 28 2 40 4 28 2 -13 2 -35 0 -50z m549 25 c-40 -56 -61 -109 -73 -183
l-12 -80 3 75 c2 54 9 88 26 120 20 42 57 90 68 90 2 0 -3 -10 -12 -22z m635
-126 c26 -56 44 -100 39 -97 -17 10 -78 129 -90 173 -6 24 -13 51 -16 60 -5
19 -3 15 67 -136z m-284 86 c-3 -8 -6 -5 -6 6 -1 11 2 17 5 13 3 -3 4 -12 1
-19z m-2549 -48 c-2 -7 -10 1 -17 16 -12 27 -11 28 4 12 10 -9 16 -21 13 -28z
m1206 -12 c-8 -29 -14 -59 -13 -68 1 -8 6 5 13 30 l12 45 6 -37 c4 -21 2 -52
-3 -70 -16 -58 -10 -77 10 -33 l19 40 3 -30 c1 -24 3 -26 6 -7 2 12 11 22 18
22 10 0 13 -14 9 -57 -4 -57 -4 -57 10 -28 9 17 15 39 16 50 1 19 1 19 11 1 6
-10 9 -35 6 -56 -2 -21 -1 -44 4 -51 7 -11 9 -11 9 3 0 39 21 23 73 -57 l55
-84 -31 -20 c-18 -10 -84 -45 -147 -76 -139 -68 -197 -120 -242 -217 -17 -37
-34 -65 -38 -63 -17 11 -29 131 -20 200 11 84 29 142 40 125 4 -6 14 24 23 67
8 43 26 119 38 168 l24 90 5 -65 5 -65 8 60 c9 64 64 235 77 235 4 0 1 -23 -6
-52z m-1149 32 c3 -5 1 -10 -4 -10 -6 0 -11 5 -11 10 0 6 2 10 4 10 3 0 8 -4
11 -10z m2713 -75 c25 -30 66 -115 59 -122 -3 -2 -12 9 -22 24 -10 15 -27 37
-38 48 -24 25 -57 94 -56 120 0 16 3 14 16 -10 9 -16 27 -43 41 -60z m-2688
35 c6 -11 9 -20 7 -20 -2 0 -12 9 -22 20 -10 11 -13 20 -7 20 6 0 16 -9 22
-20z m2769 -10 c11 -24 11 -24 -3 -6 -9 11 -16 24 -16 30 0 12 5 7 19 -24z
m-2810 -45 c0 -5 -6 1 -14 15 -8 14 -14 30 -14 35 0 6 6 -1 14 -15 8 -14 14
-29 14 -35z m1968 -17 c-2 -13 -4 -3 -4 22 0 25 2 35 4 23 2 -13 2 -33 0 -45z
m-1904 28 c4 -10 0 -12 -15 -8 -15 4 -17 7 -6 13 17 11 15 11 21 -5z m-40 -31
c-3 -9 -8 -14 -10 -11 -3 3 -2 9 2 15 9 16 15 13 8 -4z m52 -17 c-13 44 5 20
78 -110 88 -156 140 -258 131 -258 -3 0 4 -12 15 -26 12 -15 21 -34 21 -42 0
-9 7 -23 16 -33 11 -12 13 -23 7 -34 -7 -12 -15 -3 -35 42 -89 195 -118 253
-128 253 -5 0 -10 -4 -10 -10 0 -9 49 -139 70 -185 15 -33 20 -89 10 -105 -7
-11 -13 -6 -26 25 -9 22 -18 54 -18 72 -1 17 -4 29 -8 27 -14 -9 -29 38 -24
69 4 22 3 26 -2 13 -9 -20 -13 -16 -25 17 -4 11 -3 16 3 12 6 -3 10 1 10 10 0
9 -4 13 -10 10 -5 -3 -10 1 -10 9 0 9 5 16 11 16 5 0 7 5 3 12 -6 9 -9 9 -12
0 -2 -7 -8 -12 -14 -12 -6 0 -7 7 -4 16 3 8 2 12 -4 9 -6 -3 -10 -4 -10 -1 0
2 -3 13 -6 23 -5 15 -4 15 5 3 5 -8 13 -11 17 -7 4 3 1 13 -6 22 -7 8 -9 15
-6 15 4 0 0 10 -8 21 -8 12 -12 28 -9 35 3 8 0 14 -6 14 -6 0 -11 5 -11 11 0
6 7 8 16 5 9 -3 12 -2 9 5 -4 5 -16 7 -27 3 -14 -4 -18 -2 -14 5 4 6 0 21 -8
33 -23 33 -19 47 5 18 20 -24 20 -24 14 -2z m-25 -52 c0 -12 -5 -7 -19 24 -11
24 -11 24 3 6 9 -11 16 -24 16 -30z m1841 -63 c12 -27 24 -52 27 -57 3 -5 0
-6 -7 -2 -12 8 -35 49 -45 84 -13 39 3 24 25 -25z m116 15 c-3 -8 -6 -5 -6 6
-1 11 2 17 5 13 3 -3 4 -12 1 -19z m-1010 -185 c-3 -10 -5 -2 -5 17 0 19 2 27
5 18 2 -10 2 -26 0 -35z m473 26 c0 -6 -4 -7 -10 -4 -5 3 -10 11 -10 16 0 6 5
7 10 4 6 -3 10 -11 10 -16z m-1193 -261 c-3 -8 -6 -5 -6 6 -1 11 2 17 5 13 3
-3 4 -12 1 -19z m96 -32 c19 7 23 -11 6 -22 -6 -3 -9 -15 -6 -25 8 -31 -2 -22
-18 17 -16 40 -19 57 -7 36 5 -7 16 -10 25 -6z m-39 -120 c6 -23 4 -27 -8 -23
-10 4 -16 1 -16 -7 0 -9 7 -12 19 -9 16 4 22 -5 35 -50 21 -71 20 -85 -1 -60
-10 11 -23 18 -28 16 -6 -2 -18 27 -28 64 -14 53 -15 68 -5 74 10 6 9 11 -5
22 -16 11 -19 46 -7 87 2 7 36 -80 44 -114z m761 11 c-13 -32 -27 -57 -30 -57
-2 0 6 25 20 56 14 31 25 59 25 62 0 3 2 3 5 0 3 -3 -6 -30 -20 -61z m119 -7
c16 -49 18 -77 13 -167 -6 -115 -24 -183 -59 -220 -30 -32 -48 -29 -102 18
-51 45 -54 59 -35 151 12 57 89 231 116 260 29 33 47 22 67 -42z m-161 24 c-6
-3 -23 -28 -38 -56 -14 -27 -21 -47 -16 -43 6 3 20 23 31 43 l20 37 -6 -60
c-3 -33 -9 -80 -13 -105 l-7 -45 -22 49 c-36 78 -35 87 3 139 19 26 41 47 48
46 9 0 9 -2 0 -5z m-212 -84 c30 -22 68 -49 86 -61 17 -11 41 -39 52 -63 21
-43 29 -126 12 -126 -22 0 -241 256 -241 281 0 20 40 7 91 -31z m-484 -116
c-3 -3 -12 -4 -19 -1 -8 3 -5 6 6 6 11 1 17 -2 13 -5z m13 -34 c0 -17 -12 -40
-21 -40 -5 0 -9 13 -9 30 0 22 4 28 15 24 8 -4 15 -10 15 -14z m968 -49 c-5
-69 -54 -197 -84 -222 -24 -20 -21 -10 50 191 8 25 18 57 21 73 10 51 18 27
13 -42z m-962 3 c-4 -11 -1 -14 12 -10 13 4 19 1 19 -9 0 -9 -6 -14 -14 -11
-8 3 -16 -1 -19 -9 -4 -8 -10 -15 -15 -15 -13 0 -11 39 4 55 16 19 20 19 13
-1z m1122 -253 c-2 -89 -7 -126 -16 -129 -7 -2 -10 2 -6 12 5 12 2 15 -12 9
-13 -5 -15 -3 -8 8 4 8 9 48 9 89 1 41 5 122 10 180 l9 105 8 -75 c5 -41 7
-131 6 -199z m-1088 194 c0 4 3 6 6 2 4 -3 -1 -13 -10 -22 -9 -9 -16 -13 -16
-8 0 4 -3 19 -6 33 -5 24 -5 24 10 6 9 -11 16 -16 16 -11z m-33 -24 c0 -11 -5
-17 -9 -15 -11 7 -10 34 1 34 6 0 9 -9 8 -19z m0 -73 c-3 -8 -6 -5 -6 6 -1 11
2 17 5 13 3 -3 4 -12 1 -19z m13 -75 c0 -5 -5 -15 -10 -23 -8 -12 -10 -11 -10
8 0 12 5 22 10 22 6 0 10 -3 10 -7z m-13 -65 c-3 -8 -6 -5 -6 6 -1 11 2 17 5
13 3 -3 4 -12 1 -19z m140 -70 c-3 -8 -6 -5 -6 6 -1 11 2 17 5 13 3 -3 4 -12
1 -19z"/>
<path d="M1958 4273 c7 -3 16 -2 19 1 4 3 -2 6 -13 5 -11 0 -14 -3 -6 -6z"/>
<path d="M3439 3052 l-35 -27 33 -70 c26 -55 32 -62 28 -36 -3 19 -12 48 -20
64 -16 33 -19 57 -7 57 11 1 58 40 47 39 -5 0 -26 -12 -46 -27z"/>
<path d="M3552 2934 c7 -15 14 -21 16 -15 5 16 -5 41 -17 41 -7 0 -6 -10 1
-26z"/>
<path d="M2787 2860 c9 -16 22 -30 27 -30 5 0 2 8 -7 18 -10 10 -17 24 -17 30
0 7 -5 12 -11 12 -5 0 -2 -13 8 -30z"/>
<path d="M3520 2819 c0 -5 5 -7 10 -4 6 3 10 8 10 11 0 2 -4 4 -10 4 -5 0 -10
-5 -10 -11z"/>
<path d="M3450 2751 c0 -5 5 -13 10 -16 6 -3 10 -2 10 4 0 5 -4 13 -10 16 -5
3 -10 2 -10 -4z"/>
<path d="M2363 2343 c9 -2 23 -2 30 0 6 3 -1 5 -18 5 -16 0 -22 -2 -12 -5z"/>
<path d="M3051 2219 c-1 -33 4 -51 16 -60 15 -12 16 -12 8 1 -5 8 -12 35 -16
60 l-6 45 -2 -46z"/>
<path d="M3155 2193 c-11 -3 -29 -12 -40 -19 -17 -13 -13 -14 42 -14 33 0 75
-3 92 -6 34 -7 43 9 13 25 -24 13 -83 20 -107 14z"/>
<path d="M2595 3279 c-4 -6 -5 -12 -2 -15 2 -3 7 2 10 11 7 17 1 20 -8 4z"/>
<path d="M4291 2948 c-30 -55 -38 -77 -24 -65 27 23 75 113 71 132 -2 9 -23
-22 -47 -67z"/>
<path d="M1262 2139 c-9 -17 -38 -67 -65 -111 -26 -45 -45 -83 -43 -85 4 -5
115 176 128 209 12 29 -2 20 -20 -13z"/>
<path d="M1060 2117 c-19 -44 -41 -132 -39 -166 0 -9 16 33 35 93 36 114 38
151 4 73z"/>
<path d="M1125 2139 c-4 -6 -5 -12 -2 -15 2 -3 7 2 10 11 7 17 1 20 -8 4z"/>
<path d="M1210 2130 c-6 -11 -8 -20 -6 -20 3 0 10 9 16 20 6 11 8 20 6 20 -3
0 -10 -9 -16 -20z"/>
<path d="M1165 2129 c-4 -6 -5 -12 -2 -15 2 -3 7 2 10 11 7 17 1 20 -8 4z"/>
<path d="M1096 2068 c-24 -64 -56 -172 -52 -175 4 -5 19 34 49 132 27 87 29
113 3 43z"/>
<path d="M1180 2080 c-6 -11 -8 -20 -6 -20 3 0 10 9 16 20 6 11 8 20 6 20 -3
0 -10 -9 -16 -20z"/>
<path d="M1261 2078 c-25 -68 -58 -208 -55 -235 1 -7 -3 -10 -8 -7 -6 4 -9 1
-6 -7 3 -8 -5 -34 -17 -59 -13 -25 -26 -58 -29 -74 -6 -26 -5 -28 8 -17 9 8
16 24 16 37 0 12 4 25 9 28 4 3 4 -18 -1 -47 -6 -28 -14 -55 -20 -58 -6 -4 -8
-11 -5 -16 7 -12 -23 -176 -35 -188 -6 -6 -8 6 -4 35 3 25 7 79 10 120 7 113
-11 23 -24 -118 -5 -63 -15 -121 -21 -130 -8 -13 -9 -8 -4 23 14 94 17 140 11
133 -4 -3 -9 -17 -11 -30 -2 -12 -9 -44 -14 -69 -5 -26 -10 -73 -10 -105 0
-33 -4 -102 -10 -154 -20 -177 -10 -208 15 -44 19 133 56 325 62 320 7 -8 -43
-393 -64 -485 -15 -66 -12 -93 5 -48 16 43 39 163 66 357 15 102 35 228 45
280 10 52 26 133 34 180 18 95 66 343 73 378 3 12 2 22 -1 22 -4 0 -10 -10
-15 -22z"/>
<path d="M1181 1904 c-12 -26 -20 -48 -18 -50 2 -2 14 17 26 42 13 25 21 47
19 49 -2 3 -14 -16 -27 -41z"/>
<path d="M1006 1879 c-8 -42 0 -50 9 -9 4 17 5 34 2 36 -2 3 -7 -10 -11 -27z"/>
<path d="M1070 1805 c-6 -8 -10 -19 -8 -26 2 -6 9 0 16 15 13 29 10 33 -8 11z"/>
<path d="M1121 1734 c0 -11 3 -14 6 -6 3 7 2 16 -1 19 -3 4 -6 -2 -5 -13z"/>
<path d="M1028 1705 c-3 -6 -8 -26 -12 -45 l-6 -35 16 34 c14 30 16 68 2 46z"/>
<path d="M1051 1644 c0 -11 3 -14 6 -6 3 7 2 16 -1 19 -3 4 -6 -2 -5 -13z"/>
<path d="M1090 1639 c0 -2 -4 -19 -9 -37 -5 -17 -6 -32 -1 -32 8 0 21 62 14
69 -2 2 -4 2 -4 0z"/>
<path d="M1027 1593 c-11 -21 -29 -103 -24 -115 4 -12 23 46 33 100 4 21 -1
30 -9 15z"/>
<path d="M1061 1543 c0 -6 -4 -20 -7 -30 -5 -14 -4 -15 5 -7 7 7 11 20 8 30
-3 11 -5 14 -6 7z"/>
<path d="M1030 1455 c0 -29 -19 -113 -31 -137 -4 -9 -11 -40 -14 -70 l-5 -53
14 50 c8 28 21 73 29 100 23 80 30 135 18 135 -6 0 -11 -11 -11 -25z"/>
<path d="M996 1429 c-7 -37 -8 -64 -2 -58 9 9 24 89 16 89 -4 0 -10 -14 -14
-31z"/>
<path d="M1450 123 c0 -9 3 -13 7 -10 3 4 12 2 20 -5 11 -8 12 -7 7 5 -8 22
-34 30 -34 10z"/>
<path d="M1526 1313 c-2 -10 -12 -61 -21 -113 -9 -52 -20 -103 -25 -112 -6
-10 -10 -26 -10 -35 1 -17 1 -17 11 -1 12 21 62 268 56 275 -3 2 -8 -4 -11
-14z"/>
<path d="M1452 1160 c0 -14 2 -19 5 -12 2 6 2 18 0 25 -3 6 -5 1 -5 -13z"/>
<path d="M1472 1145 c0 -16 2 -22 5 -12 2 9 2 23 0 30 -3 6 -5 -1 -5 -18z"/>
<path d="M1441 1064 c0 -11 3 -14 6 -6 3 7 2 16 -1 19 -3 4 -6 -2 -5 -13z"/>
<path d="M1432 1020 c0 -14 2 -19 5 -12 2 6 2 18 0 25 -3 6 -5 1 -5 -13z"/>
<path d="M537 1129 c7 -7 15 -10 18 -7 3 3 -2 9 -12 12 -14 6 -15 5 -6 -5z"/>
<path d="M575 970 c3 -5 8 -10 11 -10 2 0 4 5 4 10 0 6 -5 10 -11 10 -5 0 -7
-4 -4 -10z"/>
<path d="M600 908 c0 -9 5 -20 10 -23 13 -8 13 5 0 25 -8 13 -10 13 -10 -2z"/>
<path d="M720 549 c0 -11 4 -18 10 -14 5 3 7 12 3 20 -7 21 -13 19 -13 -6z"/>
<path d="M1010 3740 c-12 -23 -19 -44 -16 -47 2 -3 14 14 26 37 12 23 19 44
16 47 -2 3 -14 -14 -26 -37z"/>
<path d="M3652 2618 c-14 -14 -16 -28 -3 -28 9 0 24 30 18 36 -2 2 -9 -2 -15
-8z"/>
<path d="M87 1503 c4 -10 9 -20 13 -23 34 -28 240 -389 222 -390 -4 0 1 -5 12
-11 15 -9 16 -13 5 -20 -11 -7 -10 -9 5 -9 13 0 16 -5 12 -17 -4 -10 -4 -14 0
-10 7 7 78 -130 123 -236 13 -31 28 -57 33 -57 5 0 6 -10 3 -21 -5 -15 -4 -19
4 -15 6 4 11 1 11 -8 0 -21 -17 -29 -24 -11 -3 8 -10 15 -16 15 -6 0 -8 -4 -5
-10 3 -5 2 -10 -2 -10 -8 0 -34 56 -30 64 1 1 -5 9 -13 17 -8 9 -26 32 -40 52
-39 57 -44 44 -6 -15 66 -105 125 -225 150 -309 18 -58 31 -86 41 -86 8 0 15
4 15 9 0 4 -4 8 -10 8 -5 0 -10 4 -10 10 0 5 8 6 17 3 15 -6 14 -1 -5 31 -12
20 -22 46 -22 56 0 11 -8 25 -19 32 -15 9 -17 17 -11 39 7 23 5 29 -11 34 -10
4 -19 11 -19 17 0 5 7 7 16 4 9 -3 20 -6 25 -6 5 0 9 -7 9 -15 0 -23 28 -18
35 6 4 11 4 23 1 26 -3 4 -6 1 -6 -5 0 -7 -4 -12 -10 -12 -5 0 -10 14 -10 30
0 17 -5 30 -10 30 -7 0 -7 6 0 19 14 28 12 39 -4 19 -12 -16 -16 -11 -39 45
-14 34 -31 80 -38 102 -49 161 -243 493 -358 613 -35 36 -43 40 -34 15z"/>
<path d="M40 1320 c-8 -5 -11 -12 -7 -16 4 -4 15 0 24 9 18 18 8 23 -17 7z"/>
<path d="M0 1301 c0 -6 4 -13 10 -16 6 -3 7 1 4 9 -7 18 -14 21 -14 7z"/>
<path d="M0 1171 c0 -4 28 -25 63 -45 34 -20 79 -52 100 -71 20 -19 37 -30 37
-26 0 4 -18 22 -41 41 -23 18 -37 35 -33 39 13 9 16 31 5 31 -5 0 -18 3 -28 6
-16 5 -16 4 1 -10 34 -28 -3 -18 -55 14 -27 16 -49 26 -49 21z"/>
<path d="M330 876 c0 -2 8 -10 18 -17 15 -13 16 -12 3 4 -13 16 -21 21 -21 13z"/>
<path d="M270 805 c0 -7 28 -106 55 -196 19 -63 28 -132 15 -124 -6 3 -10 1
-10 -6 0 -7 -12 -2 -27 12 -21 19 -25 20 -20 6 4 -12 3 -16 -4 -11 -6 3 -9 17
-6 30 2 13 1 21 -3 19 -5 -3 -29 31 -55 75 -26 44 -51 80 -57 80 -5 0 -8 -3
-6 -7 28 -56 48 -108 44 -117 -2 -6 -5 -4 -5 4 -1 8 -10 26 -21 40 l-19 25 14
-50 c7 -27 19 -67 25 -87 6 -21 10 -41 10 -44 -1 -4 3 -10 10 -14 11 -7 106
-258 141 -372 l20 -68 54 0 53 0 4 70 c2 39 0 70 -3 70 -3 0 -14 47 -24 105
-14 78 -15 109 -7 117 8 8 8 17 0 32 -8 17 -8 19 2 9 17 -16 65 -150 104 -290
30 -109 32 -113 59 -113 15 0 27 3 28 8 4 57 3 129 -2 126 -11 -6 -19 40 -9
50 5 5 1 23 -11 45 -10 19 -20 43 -21 51 -1 8 -4 -25 -7 -75 l-6 -90 -18 60
c-34 113 -99 280 -159 410 -66 144 -94 189 -110 178 -7 -4 -9 0 -5 10 3 8 -1
21 -9 27 -8 7 -14 9 -14 5z m49 -75 c11 -24 11 -24 -3 -6 -9 11 -16 24 -16 30
0 12 5 7 19 -24z m76 -172 c26 -55 32 -88 16 -88 -5 0 -12 10 -15 23 -3 12
-12 43 -20 70 -8 26 -13 47 -10 47 3 0 16 -24 29 -52z m-138 -120 c-3 -8 -6
-5 -6 6 -1 11 2 17 5 13 3 -3 4 -12 1 -19z"/>
<path d="M596 572 c-2 -4 -1 -14 5 -22 7 -12 9 -10 9 8 0 23 -5 28 -14 14z"/>
<path d="M885 505 c13 -70 43 -178 43 -160 1 39 -25 166 -37 178 -9 9 -11 5
-6 -18z"/>
<path d="M2410 481 c0 -5 5 -13 10 -16 6 -3 10 -2 10 4 0 5 -4 13 -10 16 -5 3
-10 2 -10 -4z"/>
<path d="M2027 321 c-4 -52 -7 -145 -7 -208 0 -106 1 -113 20 -113 19 0 20 6
19 133 0 72 -6 166 -13 207 l-12 75 -7 -94z"/>
<path d="M581 344 c0 -11 3 -14 6 -6 3 7 2 16 -1 19 -3 4 -6 -2 -5 -13z"/>
<path d="M1 157 l0 -157 75 0 c41 0 74 4 74 8 0 5 -16 41 -35 81 -19 39 -35
75 -35 79 -1 4 -18 38 -40 76 l-39 70 0 -157z"/>
<path d="M661 124 c0 -11 3 -14 6 -6 3 7 2 16 -1 19 -3 4 -6 -2 -5 -13z"/>
<path d="M1949 88 c0 -7 -2 -25 -3 -40 -1 -14 1 -25 5 -22 7 4 10 74 3 74 -2
0 -4 -6 -5 -12z"/>
<path d="M2262 30 c0 -19 2 -27 5 -17 2 9 2 25 0 35 -3 9 -5 1 -5 -18z"/>
<path d="M2102 20 c0 -14 2 -19 5 -12 2 6 2 18 0 25 -3 6 -5 1 -5 -13z"/>
</g>
</svg>
